<?xml version="1.0" encoding="UTF-8"?>
<svg id="Calque_2" xmlns="http://www.w3.org/2000/svg" viewBox="0 0 480 270">
  <defs>
    <style>
      .cls-1 {
        fill: #fff;
      }

      .cls-2 {
        fill: #f5f5f5;
      }
    </style>
  </defs>
  <g id="Calque_2-2" data-name="Calque_2">
    <g>
      <g>
        <rect class="cls-1" x=".5" y=".5" width="479" height="269"/>
        <path d="M479,1v268H1V1h478M480,0H0v270h480V0h0Z"/>
      </g>
      <g>
        <path class="cls-2" d="M218.38,143.94c0-2.52-.06-5.04.03-7.55.04-1.27-.38-1.79-1.6-2.24-6.53-2.41-11.71-6.5-14.61-12.94-4.67-10.34.71-21.42,11.79-24.64,7.47-2.17,14.53-1.08,21.28,2.56.82.44,1.33.8,2.12-.2,4.25-5.41,10.03-6.38,16.28-5,5.47,1.21,10.1,4.08,12.03,9.6.88,2.53,2.22,3.86,4.4,5.16,6.98,4.12,7.2,12.42.62,17.2-2.69,1.95-5.75,3.06-9.05,3.19-1.7.07-2.06.68-2.04,2.26.08,5.43.1,10.87-.63,16.26-.56,4.15-1.73,4.97-5.85,4.17-4.09-.79-8.13-1.84-12.32-2.01-7.11-.28-13.97,1.05-20.66,3.3-1.69.57-1.86.1-1.81-1.38.09-2.58.02-5.17.02-7.75Z"/>
        <path class="cls-2" d="M256.77,174.03c-2.93.13-5.64-.85-8.17-2.12-7.08-3.53-14.07-3.55-21.16-.04-3.1,1.54-6.39,2.52-9.96,2.19-4.57-.43-7.56-3.91-7.1-8.35.22-2.06,1.74-3.95,3.56-4.33.86-.18,1.87-.28,2.05.9.15.99-.4,1.46-1.47,1.18-.81-.21-.65.45-.63.86.08,1.66.88,2.73,2.6,2.99,1.79.27,3.27-.42,4.52-1.6,1.3-1.23,2.52-2.54,3.72-3.86,2.77-3.03,5.97-4.49,10.12-3.11,2.26.76,4.59.57,6.84-.13,3.43-1.07,6.24,0,8.68,2.41,1.51,1.49,2.92,3.07,4.43,4.55,1.22,1.19,2.65,1.95,4.46,1.77,1.72-.18,2.59-1.21,2.86-2.8.11-.65.35-1.6-1.02-1.02-.66.28-1.16-.33-1.23-.96-.08-.77.4-1.19,1.19-1.27,1.51-.16,3.42,1.2,4.09,2.95,1.7,4.46-1.38,9.18-6.4,9.76-.65.08-1.32.01-1.98.01Z"/>
      </g>
    </g>
  </g>
</svg>